<?xml version="1.0" standalone="no"?>
<!DOCTYPE svg PUBLIC "-//W3C//DTD SVG 1.1//EN" "http://www.w3.org/Graphics/SVG/1.1/DTD/svg11.dtd" >
<svg xmlns="http://www.w3.org/2000/svg">
<metadata></metadata>
<defs>
<font id="ni7segnormal" horiz-adv-x="1500" >
<font-face units-per-em="2048" ascent="1638" descent="-410" />
<missing-glyph horiz-adv-x="477" />
<glyph horiz-adv-x="0" />
<glyph unicode="&#xd;" horiz-adv-x="477" />
<glyph unicode=" "  horiz-adv-x="477" />
<glyph unicode="&#x09;" horiz-adv-x="477" />
<glyph unicode="&#xa0;" horiz-adv-x="477" />
<glyph unicode="!" horiz-adv-x="562" d="M127 158v217l154 158l155 -158v-217l-155 -158zM127 783v811l154 158l155 -158v-811l-155 -157z" />
<glyph unicode="&#x22;" horiz-adv-x="1000" d="M155 1345v249l159 158l153 -158v-249l-153 -156zM594 1345v249l158 158l155 -158v-249l-155 -156z" />
<glyph unicode="#" d="M127 594l92 95h156v376h-156l-92 93l92 94h156v220l92 92l96 -92v-220h376v220l92 92l96 -92v-220h155l93 -94l-93 -93h-155v-376h155l93 -95l-93 -92h-155v-221l-96 -93l-92 93v221h-376v-221l-96 -93l-92 93v221h-156zM563 689h376v376h-376v-376z" />
<glyph unicode="$" d="M127 281l154 158h408v313h-158l-188 187l124 126h222v248h-222l-218 220l94 94h346v125h188v-125h342l156 -155l-156 -159h-342v-248h154l157 -156l-157 -157h-154v-313h154l221 -220l-94 -92h-281v-127h-188v127h-408zM127 1158v248l92 95l217 -217v-187l-122 -127z M1065 467v254l154 156l156 -156v-376l-93 -94z" />
<glyph unicode="%" d="M127 188v279l1031 1034h217v-282l-1032 -1031h-216zM127 1284l216 217l220 -217l-220 -219zM939 406l219 220l217 -220l-217 -218z" />
<glyph unicode="&#x26;" horiz-adv-x="1375" d="M127 281v313l248 250l-248 253v122l404 408l408 -408v-122l-250 -253l188 -188l154 159h157v-189l-157 -159l157 -153v-187h-123l-126 124h-62l-188 -188h-346zM343 467l188 -186l188 186l-188 189zM406 1158l125 -127l125 127l-125 126z" />
<glyph unicode="'" horiz-adv-x="562" d="M127 1345v249l154 158l155 -158v-249l-155 -156z" />
<glyph unicode="(" horiz-adv-x="939" d="M127 345v1061l154 158l155 -158v-1061l-155 -157zM314 158l153 156h189l157 -156l-157 -158h-189zM314 1594l153 158h189l157 -158l-157 -154h-189z" />
<glyph unicode=")" horiz-adv-x="939" d="M127 158l154 156h186l157 -156l-157 -158h-186zM127 1594l154 158h186l157 -158l-157 -154h-186zM502 345v1061l154 158l157 -158v-1061l-157 -157z" />
<glyph unicode="*" horiz-adv-x="1375" d="M127 251v155l404 409h-312l-92 94l92 93h312l-404 404v158h154l375 -375h63l375 375h158v-158l-408 -404h314l94 -93l-94 -94h-314l408 -409v-155h-158l-375 375h-63l-375 -375h-154z" />
<glyph unicode="+" horiz-adv-x="1313" d="M127 844l154 158h221v217l154 157l157 -157v-217h218l157 -158l-157 -155h-218v-222l-157 -153l-154 153v222h-221z" />
<glyph unicode="," horiz-adv-x="562" d="M127 0v158l154 156h155v-156l-155 -158h-154z" />
<glyph unicode="-" horiz-adv-x="1313" d="M127 844l154 158h750l157 -158l-157 -155h-750z" />
<glyph unicode="." horiz-adv-x="562" d="M65 157q0 66 44.5 111.5t107.5 45.5t108 -46t45 -111t-45 -111t-108 -46t-107.5 46t-44.5 111z" />
<glyph unicode="/" d="M127 188v279l1031 1034h217v-282l-1032 -1031h-216z" />
<glyph unicode="0" d="M127 188v533l122 123l-122 126v594h154l155 -158v-436l-122 -126l122 -123v-376l-155 -157h-154zM314 0v158l153 156h564l157 -156v-158h-874zM314 1594v158h874v-158l-157 -154h-564zM1065 345v376l123 123l-123 126v436l154 158h156v-594l-123 -126l123 -123v-533h-156 z" />
<glyph unicode="1" d="M127 1594l154 158h343l-323 -329zM441 171v607l123 134l-123 136v438l217 235h94v-673l-124 -136l124 -134v-607l-157 -170z" />
<glyph unicode="2" d="M127 127v594l122 123l187 -188v-311l-217 -218h-92zM127 1594l154 158h971v-92l-221 -220h-750zM249 0v93l218 221h752l156 -156l-156 -158h-970zM281 877l125 125h625l188 -187v-126h-752zM1065 1031v375l217 221h93v-783h-123z" />
<glyph unicode="3" d="M127 158l154 156h750l221 -221v-93h-971zM127 844l154 158h689l157 -158l-157 -155h-689zM127 1594l154 158h971v-92l-221 -220h-750zM1065 345v376l123 123l-123 126v436l217 221h93v-657l-123 -126l123 -123v-594h-93z" />
<glyph unicode="4" d="M127 1031v563l154 158l155 -158v-655l-61 -62h-94zM406 844l157 158h407l157 -158l-157 -155h-407zM1065 158v563l123 123l-123 126v624l154 158l156 -158v-624l-123 -126l123 -123v-563l-156 -158z" />
<glyph unicode="5" d="M127 158l154 156h784l187 -187l-125 -127h-846zM127 1127v594l309 -315v-341l-122 -126zM155 1752h1033l157 -158l-157 -154h-721zM343 909l159 156h498l158 -156l-158 -157h-498zM1065 375v377l123 125l187 -188v-438l-93 -93z" />
<glyph unicode="6" d="M127 188v533l122 123l-122 126v594h154l155 -158v-436l-122 -126l122 -123v-376l-155 -157h-154zM314 0v158l153 156h564l157 -156v-158h-874zM314 1594v158h905l156 -158l-156 -154h-752zM375 844l156 158h500l157 -158l-157 -155h-500zM1065 345v311l154 159l156 -159 v-468h-156z" />
<glyph unicode="7" d="M127 1594l154 158h971v-125l-187 -187h-784zM1065 158v563l123 123l-123 126v406l217 218h93v-624l-123 -126l123 -123v-563l-156 -158z" />
<glyph unicode="8" d="M127 188v533l122 123l-122 126v594h154l155 -158v-436l-122 -126l122 -123v-376l-155 -157h-154zM314 93v65l153 156h564l157 -156v-65l-94 -93h-688zM314 1594v66l92 92h688l94 -92v-66l-157 -154h-564zM375 844l156 158h439l157 -158l-157 -155h-439zM1065 345v376 l123 123l-123 126v436l154 158h156v-594l-123 -126l123 -123v-533h-156z" />
<glyph unicode="9" d="M127 158l154 156h750l157 -156v-65l-94 -93h-813zM127 970v594h154l155 -158v-436l-155 -155zM314 1594v66l92 92h688l94 -92v-66l-157 -154h-564zM375 844l156 158h439l157 -158l-157 -155h-439zM1065 345v376l123 123l-123 126v436l154 158h156v-594l-123 -126 l123 -123v-533h-156z" />
<glyph unicode=":" horiz-adv-x="562" d="M154 1221q0 65 46 110t111 45t110.5 -45t45.5 -110t-45.5 -110.5t-110.5 -45.5t-111 46t-46 110zM157 532q0 66 45 111t110 45t110.5 -45.5t45.5 -110.5t-45.5 -111t-110.5 -46t-110 46t-45 111z" />
<glyph unicode=";" horiz-adv-x="562" d="M155 375v158l159 156h153v-156l-153 -158h-159zM155 1219l159 157l153 -157l-153 -154z" />
<glyph unicode="&#x3c;" horiz-adv-x="751" d="M127 656v221h154l343 -344v-219h-157zM127 939v219l340 343h157v-217l-343 -345h-154z" />
<glyph unicode="=" horiz-adv-x="1313" d="M127 721l154 156h719l158 -156l-158 -158h-719zM127 1097l154 155h719l158 -155l-158 -158h-719z" />
<glyph unicode="&#x3e;" horiz-adv-x="751" d="M127 314v219l340 344h157v-221l-343 -342h-154zM127 1284v217h154l343 -343v-219h-157z" />
<glyph unicode="?" horiz-adv-x="1439" d="M127 1097v436h154l155 -157v-279l-155 -158zM314 1564v96l92 92h688l94 -92v-66l-157 -154h-595zM544 116l206 98l82 -197l-205 -102zM563 594v283l126 125h376l123 -125l-123 -125h-188v-158l-158 -155zM1065 1065v341l154 158h156v-499l-156 -156z" />
<glyph unicode="@" d="M127 127v562l122 126l-122 124v655h92l217 -218v-437l-122 -124l122 -126v-314l-248 -248h-61zM188 0v63l248 251h658l158 -156v-158h-1064zM249 1627v125h939v-125l-188 -187h-564zM531 502v656h32l156 -156v-346l-156 -154h-32zM594 439v28l158 159h218l157 -159v-28 h-533zM594 1189v63h376v-187h-251zM1000 656v720l219 218h94v-938l-155 -154z" />
<glyph unicode="A" d="M127 158v563l122 123l-122 126v657h92l217 -221v-436l-122 -126l122 -123v-563l-155 -158zM249 1660v92h1003v-92l-221 -220h-564zM375 844l156 158h439l157 -158l-157 -155h-439zM1065 158v563l123 123l-123 126v436l217 221h93v-657l-123 -126l123 -123v-563l-156 -158 z" />
<glyph unicode="B" d="M127 31v690l122 123l-122 126v751l309 -315v-436l-122 -126l122 -123v-376zM155 0l312 314h564l157 -156l-157 -158h-876zM155 1752h939l125 -125l-188 -187h-564zM375 844l156 158h439l157 -158l-157 -155h-439zM1065 345v376l123 123l-123 126v436l187 188l123 -122 v-502l-123 -126l123 -123v-376l-156 -157z" />
<glyph unicode="C" horiz-adv-x="1562" d="M127 158v563l122 123l-122 126v624h122l187 -188v-436l-122 -126l122 -123v-376l-187 -187h-122zM281 0v127l186 187h815l158 -156l-158 -158h-1001zM281 1627v125h1001l158 -158l-158 -154h-815z" />
<glyph unicode="D" d="M127 31v690l122 123l-122 126v751l309 -315v-436l-122 -126l122 -123v-376zM155 0l312 314h564l157 -156l-157 -158h-876zM155 1752h939l125 -125l-188 -187h-564zM1065 345v1061l187 188l123 -122v-1127l-156 -157z" />
<glyph unicode="E" d="M127 158v563l122 123l-122 126v624h122l187 -188v-436l-122 -126l122 -123v-376l-187 -187h-122zM281 0v127l186 187h815l158 -156l-158 -158h-1001zM281 1627v125h1001l158 -158l-158 -154h-815zM406 844l157 158h531l158 -158l-158 -155h-531z" />
<glyph unicode="F" d="M127 158v563l122 123l-122 126v657h92l217 -221v-436l-122 -126l122 -123v-563l-155 -158zM249 1660v92h970l156 -158l-156 -154h-752zM375 844l156 158h563l158 -158l-158 -155h-563z" />
<glyph unicode="G" d="M127 158v563l122 123l-122 126v624h122l187 -188v-436l-122 -126l122 -123v-376l-187 -187h-122zM281 0v127l186 187h598l154 -156l-154 -158h-784zM281 1627v125h938l156 -158l-156 -154h-752zM719 783l158 156h436l-313 -313h-123zM1065 375v251l310 313v-625 l-123 -126z" />
<glyph unicode="H" d="M127 158v563l122 123l-122 126v624l154 158l155 -158v-624l-122 -126l122 -123v-563l-155 -158zM375 844l156 158h439l157 -158l-157 -155h-439zM1065 158v563l123 123l-123 126v624l154 158l156 -158v-624l-123 -126l123 -123v-563l-156 -158z" />
<glyph unicode="I" horiz-adv-x="562" d="M127 158v563l122 123l-122 126v624l154 158l155 -158v-624l-122 -126l122 -123v-563l-155 -158z" />
<glyph unicode="J" d="M127 345v376l154 156l155 -156v-376l-155 -157zM314 158l153 156h564l221 -221l-94 -93h-691zM1065 345v1249l154 158l156 -158v-1375l-93 -92z" />
<glyph unicode="K" d="M127 158v563l122 123l-122 126v624l154 158l155 -158v-624l-122 -126l122 -123v-563l-155 -158zM375 844l156 158h688l126 -125l-187 -188h-627zM502 1031v127l592 594h219v-188l-530 -533h-281zM1065 158v375l310 311v-686l-156 -158z" />
<glyph unicode="L" d="M127 31v690l122 123l-122 126v624l154 158l155 -158v-624l-122 -126l122 -123v-376zM155 0l312 314h752l156 -156l-156 -158h-1064z" />
<glyph unicode="M" horiz-adv-x="1562" d="M127 158v563l122 123l-122 126v657h92l217 -221v-436l-122 -126l122 -123v-563l-155 -158zM249 1660v92h1003v-92l-221 -220h-564zM624 877v499h253v-499l-125 -125zM1065 158v563l123 123l-123 126v436l217 221h93v-657l-123 -126l123 -123v-563l-156 -158z" />
<glyph unicode="N" d="M127 158v563l122 123l-122 126v624l154 158l155 -158v-624l-122 -126l122 -123v-563l-155 -158zM502 1252v312h122l315 -312v-313h-126zM1000 158v563l127 123l-127 126v624l158 158l155 -158v-624l-125 -126l125 -123v-563l-155 -158z" />
<glyph unicode="O" d="M127 31v690l122 123l-122 126v624h122l187 -188v-436l-122 -126l122 -123v-376zM155 0l312 314h564l188 -187v-127h-1064zM281 1627v125h938v-125l-188 -187h-564zM1065 345v376l123 123l-123 126v436l187 188h123v-624l-123 -126l123 -123v-563h-123z" />
<glyph unicode="P" d="M127 158v563l122 123l-122 126v657h92l217 -221v-436l-122 -126l122 -123v-563l-155 -158zM249 1660v92h1003v-92l-221 -220h-564zM375 844l156 158h439l157 -158l-157 -155h-439zM1065 970v436l217 221h93v-657l-156 -155z" />
<glyph unicode="Q" horiz-adv-x="1375" d="M61 188v533l127 123l-127 126v594h158l156 -158v-436l-126 -126l126 -123v-376l-156 -157h-158zM249 0v158l157 156h377l311 -314h-845zM249 1594v158h878v-158l-157 -154h-564zM939 219v220h188l186 -188v-251h-155zM1000 626v95l127 123l-127 126v436l158 158h155v-594 l-125 -126l125 -123v-407z" />
<glyph unicode="R" d="M127 158v563l122 123l-122 126v657h92l217 -221v-436l-122 -126l122 -123v-563l-155 -158zM249 1660v92h1003v-92l-221 -220h-564zM375 844l156 158h439l157 -158l-157 -155h-439zM502 626h375l498 -499v-127h-248zM1065 970v436l217 221h93v-657l-156 -155z" />
<glyph unicode="S" d="M127 158l154 156h784l187 -187l-125 -127h-846zM127 1031v502l92 94l217 -221v-375l-155 -154zM249 1660l94 92h845l157 -158l-157 -154h-721zM314 844l153 158h564l157 -158l-157 -155h-564zM1065 375v281l154 159l156 -159v-405l-93 -93z" />
<glyph unicode="T" horiz-adv-x="1562" d="M127 1594l154 158h1032l157 -158l-157 -154h-1032zM624 158v563l128 123l-128 126v406h315v-406l-126 -126l126 -123v-563l-156 -158z" />
<glyph unicode="U" d="M127 127v594l122 123l-122 126v624l154 158l155 -158v-624l-122 -126l122 -123v-376l-217 -218h-92zM249 0v93l218 221h564l221 -221v-93h-1003zM1065 345v376l123 123l-123 126v624l154 158l156 -158v-624l-123 -126l123 -123v-594h-93z" />
<glyph unicode="V" horiz-adv-x="1562" d="M127 970v624l154 158l155 -158v-624l-155 -155zM249 502v250h126l377 -377v-375zM813 0v375l375 377h125v-250zM1094 970v624l158 158l154 -158v-624l-154 -155z" />
<glyph unicode="W" horiz-adv-x="1562" d="M127 127v594l122 123l-122 126v624l154 158l155 -158v-624l-122 -126l122 -123v-376l-217 -218h-92zM249 0v93l218 221h627l219 -221v-93h-1064zM624 375v377l159 157l156 -157v-377h-315zM1127 345v376l125 123l-125 126v624l155 158l158 -158v-624l-127 -126l127 -123 v-594h-95z" />
<glyph unicode="X" horiz-adv-x="1621" d="M131 0v227l549 552h99v-389l-389 -390h-259zM131 1527v225h259l389 -390v-388h-99zM716 875l95 99l98 -99l-98 -96zM842 390v389h98l554 -552v-227h-262zM842 974v388l390 390h262v-225l-554 -553h-98z" />
<glyph unicode="Y" d="M127 158l154 156h750l221 -221v-93h-971zM127 970v624l154 158l155 -158v-624l-155 -155zM375 844l156 158h439l157 -158l-157 -155h-439zM1065 345v376l123 123l-123 126v624l154 158l156 -158v-624l-123 -126l123 -123v-594h-93z" />
<glyph unicode="Z" d="M93 158l156 156h970l156 -156l-156 -158h-970zM127 1594l154 158h938l156 -158l-156 -154h-938zM281 375l1094 1158v-468l-656 -690h-438z" />
<glyph unicode="[" horiz-adv-x="939" d="M127 0v1752h529l157 -158l-157 -154h-220v-1126h220l157 -156l-157 -158h-529z" />
<glyph unicode="\" d="M127 1219v282h216l1032 -1034v-279h-217z" />
<glyph unicode="]" horiz-adv-x="939" d="M127 158l154 156h221v1126h-221l-154 154l154 158h532v-1752h-532z" />
<glyph unicode="^" horiz-adv-x="1187" d="M127 1313v159l279 280h157v-158l-282 -281h-154zM624 1594v158h159l282 -280v-159h-158z" />
<glyph unicode="_" horiz-adv-x="1313" d="M127 158l154 156h750l157 -156l-157 -158h-750z" />
<glyph unicode="`" horiz-adv-x="562" d="M127 1345v249l154 158l155 -158v-249l-155 -156z" />
<glyph unicode="a" d="M127 158v563l122 123l-122 126v657h92l217 -221v-436l-122 -126l122 -123v-563l-155 -158zM249 1660v92h1003v-92l-221 -220h-564zM375 844l156 158h439l157 -158l-157 -155h-439zM1065 158v563l123 123l-123 126v436l217 221h93v-657l-123 -126l123 -123v-563l-156 -158 z" />
<glyph unicode="b" d="M127 31v690l122 123l-122 126v751l309 -315v-436l-122 -126l122 -123v-376zM155 0l312 314h564l157 -156l-157 -158h-876zM155 1752h939l125 -125l-188 -187h-564zM375 844l156 158h439l157 -158l-157 -155h-439zM1065 345v376l123 123l-123 126v436l187 188l123 -122 v-502l-123 -126l123 -123v-376l-156 -157z" />
<glyph unicode="c" horiz-adv-x="1562" d="M127 158v563l122 123l-122 126v624h122l187 -188v-436l-122 -126l122 -123v-376l-187 -187h-122zM281 0v127l186 187h815l158 -156l-158 -158h-1001zM281 1627v125h1001l158 -158l-158 -154h-815z" />
<glyph unicode="d" d="M127 31v690l122 123l-122 126v751l309 -315v-436l-122 -126l122 -123v-376zM155 0l312 314h564l157 -156l-157 -158h-876zM155 1752h939l125 -125l-188 -187h-564zM1065 345v1061l187 188l123 -122v-1127l-156 -157z" />
<glyph unicode="e" d="M127 158v563l122 123l-122 126v624h122l187 -188v-436l-122 -126l122 -123v-376l-187 -187h-122zM281 0v127l186 187h815l158 -156l-158 -158h-1001zM281 1627v125h1001l158 -158l-158 -154h-815zM406 844l157 158h531l158 -158l-158 -155h-531z" />
<glyph unicode="f" d="M127 158v563l122 123l-122 126v657h92l217 -221v-436l-122 -126l122 -123v-563l-155 -158zM249 1660v92h970l156 -158l-156 -154h-752zM375 844l156 158h563l158 -158l-158 -155h-563z" />
<glyph unicode="g" d="M127 158v563l122 123l-122 126v624h122l187 -188v-436l-122 -126l122 -123v-376l-187 -187h-122zM281 0v127l186 187h598l154 -156l-154 -158h-784zM281 1627v125h938l156 -158l-156 -154h-752zM719 783l158 156h436l-313 -313h-123zM1065 375v251l310 313v-625 l-123 -126z" />
<glyph unicode="h" d="M127 158v563l122 123l-122 126v624l154 158l155 -158v-624l-122 -126l122 -123v-563l-155 -158zM375 844l156 158h439l157 -158l-157 -155h-439zM1065 158v563l123 123l-123 126v624l154 158l156 -158v-624l-123 -126l123 -123v-563l-156 -158z" />
<glyph unicode="i" horiz-adv-x="562" d="M127 158v563l122 123l-122 126v624l154 158l155 -158v-624l-122 -126l122 -123v-563l-155 -158z" />
<glyph unicode="j" d="M127 345v376l154 156l155 -156v-376l-155 -157zM314 158l153 156h564l221 -221l-94 -93h-691zM1065 345v1249l154 158l156 -158v-1375l-93 -92z" />
<glyph unicode="k" d="M127 158v563l122 123l-122 126v624l154 158l155 -158v-624l-122 -126l122 -123v-563l-155 -158zM375 844l156 158h688l126 -125l-187 -188h-627zM502 1031v127l592 594h219v-188l-530 -533h-281zM1065 158v375l310 311v-686l-156 -158z" />
<glyph unicode="l" d="M127 31v690l122 123l-122 126v624l154 158l155 -158v-624l-122 -126l122 -123v-376zM155 0l312 314h752l156 -156l-156 -158h-1064z" />
<glyph unicode="m" horiz-adv-x="1562" d="M127 158v563l122 123l-122 126v657h92l217 -221v-436l-122 -126l122 -123v-563l-155 -158zM249 1660v92h1003v-92l-221 -220h-564zM624 877v499h253v-499l-125 -125zM1065 158v563l123 123l-123 126v436l217 221h93v-657l-123 -126l123 -123v-563l-156 -158z" />
<glyph unicode="n" d="M127 158v563l122 123l-122 126v624l154 158l155 -158v-624l-122 -126l122 -123v-563l-155 -158zM502 1252v312h122l315 -312v-313h-126zM1000 158v563l127 123l-127 126v624l158 158l155 -158v-624l-125 -126l125 -123v-563l-155 -158z" />
<glyph unicode="o" d="M127 31v690l122 123l-122 126v624h122l187 -188v-436l-122 -126l122 -123v-376zM155 0l312 314h564l188 -187v-127h-1064zM281 1627v125h938v-125l-188 -187h-564zM1065 345v376l123 123l-123 126v436l187 188h123v-624l-123 -126l123 -123v-563h-123z" />
<glyph unicode="p" d="M127 158v563l122 123l-122 126v657h92l217 -221v-436l-122 -126l122 -123v-563l-155 -158zM249 1660v92h1003v-92l-221 -220h-564zM375 844l156 158h439l157 -158l-157 -155h-439zM1065 970v436l217 221h93v-657l-156 -155z" />
<glyph unicode="q" d="M61 188v533l127 123l-127 126v594h158l156 -158v-436l-126 -126l126 -123v-376l-156 -157h-158zM249 0v158l157 156h377l311 -314h-845zM249 1594v158h878v-158l-157 -154h-564zM939 219v220h188l186 -188v-251h-155zM1000 626v95l127 123l-127 126v436l158 158h155v-594 l-125 -126l125 -123v-407z" />
<glyph unicode="r" d="M127 158v563l122 123l-122 126v657h92l217 -221v-436l-122 -126l122 -123v-563l-155 -158zM249 1660v92h1003v-92l-221 -220h-564zM375 844l156 158h439l157 -158l-157 -155h-439zM502 626h375l498 -499v-127h-248zM1065 970v436l217 221h93v-657l-156 -155z" />
<glyph unicode="s" d="M127 158l154 156h784l187 -187l-125 -127h-846zM127 1031v502l92 94l217 -221v-375l-155 -154zM249 1660l94 92h845l157 -158l-157 -154h-721zM314 844l153 158h564l157 -158l-157 -155h-564zM1065 375v281l154 159l156 -159v-405l-93 -93z" />
<glyph unicode="t" horiz-adv-x="1562" d="M127 1594l154 158h1032l157 -158l-157 -154h-1032zM624 158v563l128 123l-128 126v406h315v-406l-126 -126l126 -123v-563l-156 -158z" />
<glyph unicode="u" d="M127 127v594l122 123l-122 126v624l154 158l155 -158v-624l-122 -126l122 -123v-376l-217 -218h-92zM249 0v93l218 221h564l221 -221v-93h-1003zM1065 345v376l123 123l-123 126v624l154 158l156 -158v-624l-123 -126l123 -123v-594h-93z" />
<glyph unicode="v" horiz-adv-x="1562" d="M127 970v624l154 158l155 -158v-624l-155 -155zM249 502v250h126l377 -377v-375zM813 0v375l375 377h125v-250zM1094 970v624l158 158l154 -158v-624l-154 -155z" />
<glyph unicode="w" horiz-adv-x="1562" d="M127 127v594l122 123l-122 126v624l154 158l155 -158v-624l-122 -126l122 -123v-376l-217 -218h-92zM249 0v93l218 221h627l219 -221v-93h-1064zM624 375v377l159 157l156 -157v-377h-315zM1127 345v376l125 123l-125 126v624l155 158l158 -158v-624l-127 -126l127 -123 v-594h-95z" />
<glyph unicode="x" horiz-adv-x="1562" d="M127 0v219l529 533h96v-377l-377 -375h-248zM127 1472v216h248l377 -375v-374h-96zM689 844l94 95l94 -95l-94 -92zM813 375v377h94l533 -533v-219h-252zM813 939v374l375 375h252v-216l-533 -533h-94z" />
<glyph unicode="y" d="M127 158l154 156h750l221 -221v-93h-971zM127 970v624l154 158l155 -158v-624l-155 -155zM375 844l156 158h439l157 -158l-157 -155h-439zM1065 345v376l123 123l-123 126v624l154 158l156 -158v-624l-123 -126l123 -123v-594h-93z" />
<glyph unicode="z" d="M93 158l156 156h970l156 -156l-156 -158h-970zM127 1594l154 158h938l156 -158l-156 -154h-938zM281 375l1094 1158v-468l-656 -690h-438z" />
<glyph unicode="{" horiz-adv-x="1126" d="M127 844v65l187 188v309l153 158l157 -158v-309l-188 -188v-65l188 -188v-311l-157 -157l-153 157v311zM502 158l154 156h188l156 -156l-156 -158h-188zM502 1594l154 158h188l156 -158l-156 -154h-188z" />
<glyph unicode="|" horiz-adv-x="562" d="M127 219v437l154 159l155 -159v-437l-155 -156zM127 1097v436l154 155l155 -155v-436l-155 -158z" />
<glyph unicode="}" horiz-adv-x="1126" d="M127 158l154 156h186l157 -156l-157 -158h-186zM127 1594l154 158h186l157 -158l-157 -154h-186zM502 345v311l187 188v65l-187 188v309l154 158l157 -158v-309l187 -188v-65l-187 -188v-311l-157 -157z" />
<glyph unicode="~" horiz-adv-x="1187" d="M127 1313v159l279 280h125l188 -188l188 188h158v-158l-282 -281h-127l-189 188l-186 -188h-154z" />
<glyph unicode="&#xad;" horiz-adv-x="1313" d="M127 844l154 158h750l157 -158l-157 -155h-750z" />
<glyph unicode="&#x2000;" horiz-adv-x="876" />
<glyph unicode="&#x2001;" horiz-adv-x="1752" />
<glyph unicode="&#x2002;" horiz-adv-x="876" />
<glyph unicode="&#x2003;" horiz-adv-x="1752" />
<glyph unicode="&#x2004;" horiz-adv-x="584" />
<glyph unicode="&#x2005;" horiz-adv-x="438" />
<glyph unicode="&#x2006;" horiz-adv-x="292" />
<glyph unicode="&#x2007;" horiz-adv-x="292" />
<glyph unicode="&#x2008;" horiz-adv-x="219" />
<glyph unicode="&#x2009;" horiz-adv-x="350" />
<glyph unicode="&#x200a;" horiz-adv-x="97" />
<glyph unicode="&#x2010;" horiz-adv-x="1313" d="M127 844l154 158h750l157 -158l-157 -155h-750z" />
<glyph unicode="&#x2011;" horiz-adv-x="1313" d="M127 844l154 158h750l157 -158l-157 -155h-750z" />
<glyph unicode="&#x2012;" horiz-adv-x="1313" d="M127 844l154 158h750l157 -158l-157 -155h-750z" />
<glyph unicode="&#x2013;" horiz-adv-x="1276" d="M127 844l149 158h723l152 -158l-152 -155h-723z" />
<glyph unicode="&#x2014;" horiz-adv-x="2300" d="M127 844l297 158h1448l303 -158l-303 -155h-1448z" />
<glyph unicode="&#x202f;" horiz-adv-x="350" />
<glyph unicode="&#x205f;" horiz-adv-x="438" />
<glyph unicode="&#x25fc;" horiz-adv-x="1690" d="M0 0v1691h1691v-1691h-1691z" />
</font>
</defs>
</svg>
